<?xml version="1.0" encoding="UTF-8" standalone="no"?>
<!DOCTYPE svg PUBLIC "-//W3C//DTD SVG 1.1//EN" "http://www.w3.org/Graphics/SVG/1.1/DTD/svg11.dtd">
<svg width="100%" height="100%" viewBox="0 0 200 290" version="1.1" xmlns="http://www.w3.org/2000/svg" xmlns:xlink="http://www.w3.org/1999/xlink" xml:space="preserve" xmlns:serif="http://www.serif.com/" style="fill-rule:evenodd;clip-rule:evenodd;stroke-linejoin:round;stroke-miterlimit:1.41421;">
    <g>
        <g transform="matrix(1,0,0,1.02183,0,-7.38931)">
            <rect x="0" y="60.309" width="200" height="189.729" style="fill:rgb(3,102,202);"/>
        </g>
        <g transform="matrix(0.685856,0,0,0.695447,0,74.2193)">
            <rect x="0" y="60.309" width="200" height="189.729" style="fill:rgb(8,8,9);"/>
        </g>
        <g transform="matrix(1,0,0,1,2.003,-9.58886)">
            <text x="-0.579px" y="34.754px" style="font-family:'TimesNewRomanPSMT', 'Times New Roman', serif;font-size:31.345px;">O<tspan x="23.311px 43.711px 63.545px 87.435px 99.127px 123.017px 146.907px 170.797px " y="34.754px 34.754px 34.754px 34.754px 34.754px 34.754px 34.754px 34.754px ">TTO-HAHN</tspan></text>
        </g>
        <g transform="matrix(0.986374,0,0,1,3.33851,15.3945)">
            <text x="-0.579px" y="34.754px" style="font-family:'TimesNewRomanPSMT', 'Times New Roman', serif;font-size:31.345px;">G<tspan x="21.9px 44.38px 72.093px 94.573px 117.052px 134.328px 144.609px 167.089px " y="34.754px 34.754px 34.754px 34.754px 34.754px 34.754px 34.754px 34.754px ">YMNASIUM</tspan></text>
        </g>
        <g transform="matrix(0.986374,0,0,1,2.65205,231.933)">
            <text x="-0.579px" y="34.754px" style="font-family:'TimesNewRomanPSMT', 'Times New Roman', serif;font-size:22px;">E<tspan x="15.499px 34.027px 51.341px 69.868px 82.724px 101.252px 116.127px 133.441px 151.969px 170.496px 186.575px " y="34.754px 34.754px 34.754px 34.754px 34.754px 34.754px 34.754px 34.754px 34.754px 34.754px 34.754px ">UROPASCHULE</tspan></text>
        </g>
        <g transform="matrix(0.986374,0,0,1,2.39292,250.975)">
            <text x="-0.579px" y="34.754px" style="font-family:'TimesNewRomanPSMT', 'Times New Roman', serif;font-size:22px;">G<tspan x="21.248px 40.627px 60.005px 78.181px 97.559px 119.387px 141.215px 161.828px 183.656px " y="34.754px 34.754px 34.754px 34.754px 34.754px 34.754px 34.754px 34.754px 34.754px ">EESTHACHT</tspan></text>
        </g>
        <g transform="matrix(1.03247,0,0,1.03665,-0.593709,-10.464)">
            <path d="M11.644,101.841L13.897,108.776L21.189,108.776L15.289,113.062L17.543,119.997L11.644,115.711L5.745,119.997L7.998,113.062L2.099,108.776L9.39,108.776L11.644,101.841Z" style="fill:white;"/>
        </g>
        <g transform="matrix(1.03247,0,0,1.03665,26.1487,-24.5845)">
            <path d="M11.644,101.841L13.897,108.776L21.189,108.776L15.289,113.062L17.543,119.997L11.644,115.711L5.745,119.997L7.998,113.062L2.099,108.776L9.39,108.776L11.644,101.841Z" style="fill:white;"/>
        </g>
        <g transform="matrix(1.03247,0,0,1.03665,53.3925,-33.0109)">
            <path d="M11.644,101.841L13.897,108.776L21.189,108.776L15.289,113.062L17.543,119.997L11.644,115.711L5.745,119.997L7.998,113.062L2.099,108.776L9.39,108.776L11.644,101.841Z" style="fill:white;"/>
        </g>
        <g transform="matrix(1.03247,0,0,1.03665,82.9611,-38.6144)">
            <path d="M11.644,101.841L13.897,108.776L21.189,108.776L15.289,113.062L17.543,119.997L11.644,115.711L5.745,119.997L7.998,113.062L2.099,108.776L9.39,108.776L11.644,101.841Z" style="fill:white;"/>
        </g>
        <g transform="matrix(1.03247,0,0,1.03665,114.334,-37.1316)">
            <path d="M11.644,101.841L13.897,108.776L21.189,108.776L15.289,113.062L17.543,119.997L11.644,115.711L5.745,119.997L7.998,113.062L2.099,108.776L9.39,108.776L11.644,101.841Z" style="fill:white;"/>
        </g>
        <g transform="matrix(1.03247,0,0,1.03665,173.701,-20.8655)">
            <path d="M11.644,101.841L13.897,108.776L21.189,108.776L15.289,113.062L17.543,119.997L11.644,115.711L5.745,119.997L7.998,113.062L2.099,108.776L9.39,108.776L11.644,101.841Z" style="fill:white;"/>
        </g>
        <g transform="matrix(1.03247,0,0,1.03665,146.87,-31.4993)">
            <path d="M11.644,101.841L13.897,108.776L21.189,108.776L15.289,113.062L17.543,119.997L11.644,115.711L5.745,119.997L7.998,113.062L2.099,108.776L9.39,108.776L11.644,101.841Z" style="fill:white;"/>
        </g>
        <g transform="matrix(1,0,0,1,4.28282,-12.132)">
            <text x="0px" y="255.2px" style="font-family:'TimesNewRomanPSMT', 'Times New Roman', serif;font-size:80px;fill:white;">O<tspan x="67.373px 134.747px " y="255.2px 255.2px ">HG</tspan></text>
        </g>
    </g>
</svg>
